<!--
  - Copyright © 2025 Clyso GmbH
  -
  -  Licensed under the GNU Affero General Public License, Version 3.0 (the "License");
  -  you may not use this file except in compliance with the License.
  -  You may obtain a copy of the License at
  -
  -  https://www.gnu.org/licenses/agpl-3.0.html
  -
  -  Unless required by applicable law or agreed to in writing, software
  -  distributed under the License is distributed on an "AS IS" BASIS,
  -  WITHOUT WARRANTIES OR CONDITIONS OF ANY KIND, either express or implied.
  -  See the License for the specific language governing permissions and
  -  limitations under the License.
  -->

<svg xmlns="http://www.w3.org/2000/svg" width="64" height="64"><path d="M40.25 3.108l8.387 13.714c.04.055.04.128 0 .183-.06.06-.158.06-.22 0L37.593 5.68z" fill="#f05a28"/><path d="M21.733 39.997c1.838-3.9 4.337-7.45 7.388-10.496a37.79 37.79 0 0 1 3.657-3.243v8.01zm-6.4 7.4l17.47-8.9V58.83L36.74 64V36.474l2.438-1.22a11.85 11.85 0 0 0 3.255-18.749l-9.02-9.4a2 2 0 0 1 .098-2.804 2.01 2.01 0 0 1 2.828.098l1.22 1.317 2.694-2.584C37.07-1 33.168-.525 30.9 1.584a5.73 5.73 0 0 0-.244 8.095l9.07 9.448c1.68 1.8 2.458 4.244 2.116 6.674s-1.765 4.575-3.872 5.834l-1.22.634V19.42a41.13 41.13 0 0 0-21.407 27.977" fill="#010000"/></svg>
