<!--
  - Copyright © 2025 Clyso GmbH
  -
  -  Licensed under the GNU Affero General Public License, Version 3.0 (the "License");
  -  you may not use this file except in compliance with the License.
  -  You may obtain a copy of the License at
  -
  -  https://www.gnu.org/licenses/agpl-3.0.html
  -
  -  Unless required by applicable law or agreed to in writing, software
  -  distributed under the License is distributed on an "AS IS" BASIS,
  -  WITHOUT WARRANTIES OR CONDITIONS OF ANY KIND, either express or implied.
  -  See the License for the specific language governing permissions and
  -  limitations under the License.
  -->

<svg id="e30GbDuxvRa1" xmlns="http://www.w3.org/2000/svg" xmlns:xlink="http://www.w3.org/1999/xlink" viewBox="0 0 32 32" shape-rendering="geometricPrecision" text-rendering="geometricPrecision"><path d="M-14.278,9.1c-2.917.6-6.05,2.93-7.352,5.484s-1.35,3.182-1.35,13.933c0,5.737.096,10.462.24,11.2.856,4.376,4.278,7.798,8.654,8.654c1.326.24,18.585.362,18.585.096c0-.193-1.47-5.978-1.543-6.05-.024-.048-3.086-.723-6.798-1.52-8.654-1.88-8.4-1.808-9.112-2.676l-.627-.747v-17.5l.627-.76c.723-.868.458-.795,9.112-2.676l6.798-1.52C3.03,14.968,4.5,9.182,4.5,9c0-.23-17.62-.12-18.778.12Zm27.938.036c.024.434,1.374,5.737,1.52,5.882.048.072,3.35.82,7.304,1.663s7.473,1.7,7.786,1.88c.424.246.78.594,1.037,1.012.386.675.434,1.398.434,9.16s-.048,8.485-.434,9.16c-.262902.412869-.61784.75925-1.037,1.012-.313.17-3.8,1.012-7.786,1.88L15.18,42.46c-.145.145-1.495,5.448-1.52,5.882c0,.265,1.736.313,9.353.24c10.5-.096,10.63-.12,13.306-1.928c1.922-1.323,3.374-3.222,4.146-5.424.554-1.615.554-1.76.554-12.487s0-10.872-.554-12.487c-.772377-2.201628-2.224198-4.10097-4.146-5.424C33.643,9.026,33.523,9,23.013,8.905c-7.617-.072-9.353-.036-9.353.24ZM2.9,28.238c-.07725.257725-.09368.529853-.048.795.072.4.506.434,6.17.506l6.075.048v-1.687h-6.017c-5.038,0-6.075.048-6.17.337Z" transform="matrix(.500008 0 0 0.500008 11.490178 1.627105)" fill="#ff6a00"/></svg>
