<!--
  - Copyright © 2026 Clyso GmbH
  -
  -  Licensed under the GNU Affero General Public License, Version 3.0 (the "License");
  -  you may not use this file except in compliance with the License.
  -  You may obtain a copy of the License at
  -
  -  https://www.gnu.org/licenses/agpl-3.0.html
  -
  -  Unless required by applicable law or agreed to in writing, software
  -  distributed under the License is distributed on an "AS IS" BASIS,
  -  WITHOUT WARRANTIES OR CONDITIONS OF ANY KIND, either express or implied.
  -  See the License for the specific language governing permissions and
  -  limitations under the License.
  -->

<svg xmlns="http://www.w3.org/2000/svg" class="ionicon" viewBox="0 0 512 512"><path d="M384 224v184a40 40 0 01-40 40H104a40 40 0 01-40-40V168a40 40 0 0140-40h167.48" fill="none" stroke="currentColor" stroke-linecap="round" stroke-linejoin="round" stroke-width="32"/><path d="M459.94 53.25a16.06 16.06 0 00-23.22-.56L424.35 65a8 8 0 000 11.31l11.34 11.32a8 8 0 0011.34 0l12.06-12c6.1-6.09 6.67-16.01.85-22.38zM399.34 90L218.82 270.2a9 9 0 00-2.31 3.93L208.16 299a3.91 3.91 0 004.86 4.86l24.85-8.35a9 9 0 003.93-2.31L422 112.66a9 9 0 000-12.66l-9.95-10a9 9 0 00-12.71 0z"/></svg>
